<svg width="998" height="388" viewBox="0 0 998 388" fill="none" xmlns="http://www.w3.org/2000/svg">
<path d="M266 144L221 188.5L266 233" stroke="white"/>
<path d="M750 144L795 188.5L750 233" stroke="white"/>
<path d="M266 144L221 188.5L266 233" stroke="white"/>
<path d="M750 144L795 188.5L750 233" stroke="white"/>
<path d="M221 144L177 188.5L221 233" stroke="white"/>
<path d="M795 144L839 188.5L795 233" stroke="white"/>
<path d="M221 144L177 188.5L221 233" stroke="white"/>
<path d="M795 144L839 188.5L795 233" stroke="white"/>
<path d="M177 144L132 188.5L177 233" stroke="white"/>
<path d="M839 144L884 188.5L839 233" stroke="white"/>
<path d="M177 144L132 188.5L177 233" stroke="white"/>
<path d="M839 144L884 188.5L839 233" stroke="white"/>
<path d="M315.986 209H323.168V192.299H328.298C336.848 192.299 344.429 190.475 344.429 180.329C344.429 171.38 337.361 168.644 329.552 168.644H315.986V209ZM323.168 186.143V174.8H328.298C332.174 174.8 336.905 175.484 336.905 180.443C336.905 185.915 331.604 186.143 327.5 186.143H323.168ZM401.562 209H408.744V191.9H413.988L423.336 209H432L421.284 191.159C427.269 190.304 430.632 186.029 430.632 180.215C430.632 171.152 423.336 168.644 415.584 168.644H401.562V209ZM408.744 185.744V174.8H414.957C418.662 174.8 423.108 175.37 423.108 180.158C423.108 185.402 418.377 185.744 414.33 185.744H408.744ZM488.024 209H495.206V168.644H488.024V209ZM579.813 171.779C576.678 168.815 572.46 167.618 568.242 167.618C560.775 167.618 553.365 171.494 553.365 179.816C553.365 194.237 572.517 189.164 572.517 197.999C572.517 201.704 568.755 203.528 565.449 203.528C562.257 203.528 559.236 201.989 557.469 199.31L552.054 204.554C555.36 208.487 560.262 210.026 565.278 210.026C573.201 210.026 580.041 205.808 580.041 197.144C580.041 182.78 560.889 187.397 560.889 179.303C560.889 175.598 564.195 174.116 567.501 174.116C570.294 174.116 573.03 175.142 574.569 177.308L579.813 171.779ZM638.421 209H645.261V175.484H645.375L657.63 209H662.646L674.901 175.484H675.015V209H681.855V168.644H671.025L660.138 196.916L649.365 168.644H638.421V209Z" fill="white"/>
</svg>
